<?xml version="1.0" encoding="utf-8"?>
<!-- Generator: Adobe Illustrator 25.0.1, SVG Export Plug-In . SVG Version: 6.00 Build 0)  -->
<svg version="1.1" id="Layer_1" xmlns="http://www.w3.org/2000/svg" xmlns:xlink="http://www.w3.org/1999/xlink" x="0px" y="0px"
	 viewBox="0 0 2400 800" style="enable-background:new 0 0 2400 800;" xml:space="preserve">
<style type="text/css">
	.st0{fill:#FFD633;}
	.st1{fill:#0092FF;}
	.st2{enable-background:new    ;}
	.st3{fill:#FFFFFF;}
</style>
<g id="Background">
	<rect class="st0" width="2400" height="800"/>
	<polygon class="st1" points="1273.2,800 2400,0 0,0 320.1,800 	"/>
</g>
<g class="st2">
	<path class="st3" d="M346.5,368.6h-18.7c-3.4,0-5.7-3.4-5.3-7.2l2.3-17.1c0.8-4.2,3.8-7.2,7.6-7.2h18.3l5.3-38.5
		c7.2-52.2,40-75.8,80-75.8c23.6,0,37.3,9.9,44.2,16.4c13-13.3,29.7-20.2,48-20.2c18.7,0,32.4,9.1,37.7,15.2c1.9,2.3,1.9,6.1,0,8.8
		l-10.7,16.4c-2.3,3-5.3,4.2-8.4,1.9c-5-3.8-13.3-8-21.3-8c-14.9,0-27.4,11-30.9,36.6l-6.5,47.2h35.8c3.8,0,6.1,3,5.3,7.2l-2.3,17.1
		c-0.8,3.8-3.8,7.2-7.6,7.2h-35.8l-32.8,227.8c-0.4,3.8-4.2,7.2-7.6,7.2h-24.4c-3.4,0-6.1-3.4-5.3-7.2l32.8-227.8h-62.5l-32.8,227.8
		c-0.4,3.8-4.2,7.2-7.6,7.2h-24.4c-3.4,0-6.1-3.4-5.3-7.2L346.5,368.6z M450.5,337l6.9-47.2c1.1-7.2,2.7-15.2,4.6-21.3
		c-3.8-5.7-14.9-12.6-29-12.6c-17.9,0-34.7,12.6-39.2,42.7l-5.7,38.5H450.5z"/>
	<path class="st3" d="M539.7,425.3c0-52.2,37-92.2,81.1-92.2c14.9,0,26.3,6.5,30.1,8.8l15.6-112c0.8-5,5.3-7.2,9.1-7.2h21.7
		c3.4,0,6.1,3.4,5.7,7.2l-35.4,252.2c-0.8,3.8-4.2,7.2-7.6,7.2h-11.4c-2.7,0-4.2-1.5-5-5.3l-2.3-11.4c-2.7,2.7-21.7,20.6-46.9,20.6
		C562.5,493.1,539.7,462.3,539.7,425.3z M638.7,436.8l8-61.7c0,0-9.5-8.8-27-8.8c-24,0-43.8,24.8-43.8,54.9
		c0,21.3,10.3,39.2,28.6,39.2C623.5,460.4,637.2,439.8,638.7,436.8z"/>
	<path class="st3" d="M735.5,344.2c0.4-3.8,3-7.2,7.2-7.2h11.4c2.3,0,4.6,2.3,5.3,5.3l2.7,13c3.8-3.8,19-22.1,42.7-22.1
		c8.8,0,16.8,1.5,21.7,5c3,1.9,3,5.3,0.8,8.8l-10.7,18.7c-2.7,3.8-6.1,4.2-8.8,3.4c-1.5-0.4-7.2-1.9-12.6-1.9
		c-16,0-27,15.6-29.3,18.3l-13.7,96.8c-0.8,6.5-5.3,7.2-11.4,7.2h-19c-3.4,0-5.7-3.4-5.3-7.2L735.5,344.2z"/>
	<path class="st3" d="M917.2,333.1c34.3,0,59.4,32,59.4,68.9c0,49.1-35.4,91-81.9,91c-33.1,0-59.4-31.6-59.4-69.7
		C835.3,374.7,871.1,333.1,917.2,333.1z M942.3,405.9c0-21.7-11.8-39.6-29.7-39.6c-22.5,0-43,24.4-43,54.1c0,21.7,11.8,40,29.7,40
		C921.7,460.4,942.3,435.6,942.3,405.9z"/>
	<path class="st3" d="M1025.7,596.4c-0.8,4.2-3,7.2-8.4,7.2h-22.9c-3.4,0-6.1-3.4-5.7-7.2l35.4-252.2c0.4-3.8,3.4-7.2,7.6-7.2h11.8
		c2.3,0,4.6,1.5,5.3,5l2.3,9.9c3.8-4.2,22.5-18.7,45.3-18.7c33.9,0,55.6,31.2,55.6,68.6c0,51-35.4,91.4-79.6,91.4
		c-15.6,0-27.4-6.5-30.9-9.1L1025.7,596.4z M1072.6,460.4c23.6,0,43.8-24.8,43.8-55.2c0-21-9.9-38.9-28.6-38.9s-32.4,16.8-33.9,19
		l-8.4,63.6C1045.5,449,1054.7,460.4,1072.6,460.4z"/>
	<path class="st3" d="M1263.8,333.1c28.6,0,51,15.2,51,43.4c0,43.4-61,49.9-100.9,45.3c-1.9,20.6,8.4,39.2,29.7,39.2
		c11.4,0,23.6-5.7,30.9-10.7c4.2-2.7,6.5-3.8,9.1-0.4l10.3,14.1c2.3,3,2.7,6.5-1.9,9.9c-11.8,9.5-30.9,19-53.7,19
		c-37,0-59.4-30.9-59.4-68.2C1178.9,376.6,1212.8,333.1,1263.8,333.1z M1280.6,378.5c0-9.9-9.9-16-20.6-16
		c-21,0-35.8,14.9-40.4,33.9C1241,398.3,1280.6,400.6,1280.6,378.5z"/>
	<path class="st3" d="M1356.4,344.2c0.4-3.8,3.4-7.2,7.6-7.2h11.4c2.7,0,4.6,1.9,5,4.6l2.7,13c3.8-3.4,24-21.3,51-21.3
		c42.7,0,54.1,32.8,48.8,72.4l-10.7,76.6c-0.4,3.8-4.2,7.2-7.6,7.2h-23.2c-3.8,0-5.7-3.4-5.3-7.2l10.7-77.7
		c3.4-24.4-4.2-38.1-21.3-38.1c-19.8,0-35.8,17.5-38.9,22.1l-13.3,93.7c-0.8,5-2.7,7.2-9.5,7.2h-21c-3.4,0-6.1-3.4-5.3-7.2
		L1356.4,344.2z"/>
	<path class="st3" d="M1602.5,333.1c21,0,37.7,11.4,46.5,27c1.9,3.4,0.8,8-2.7,10.7l-13.7,9.5c-4.6,3-6.9,1.1-8.8-1.5
		c-5.7-7.2-13.3-12.6-24-12.6c-22.9,0-45.3,25.9-45.3,55.6c0,22.1,10.7,38.5,29,38.5c16,0,24.8-11.8,31.2-19.8c3-3.4,6.1-3,8.8-0.8
		l13.7,10.7c3.4,2.7,3.8,6.9,0.8,10.7c-14.1,19-33.9,32-57.9,32c-34.3,0-62.1-29.7-62.1-68.9
		C1517.9,373.1,1557.9,333.1,1602.5,333.1z"/>
</g>
</svg>
